<svg xmlns="http://www.w3.org/2000/svg" viewBox="0 0 698.83 549.08"><defs><style>.cls-1{fill:#07242e;}</style></defs><g id="Layer_2" data-name="Layer 2"><g id="_ÎÓÈ_1" data-name="—ÎÓÈ_1"><polygon class="cls-1" points="385.83 514.04 0.33 514.04 0.33 345.75 10.33 345.75 10.33 504.05 385.83 504.05 385.83 514.04"/><polygon class="cls-1" points="10.33 263.86 0.33 263.86 0.33 0 135.03 0 135.03 10 10.33 10 10.33 263.86"/><rect class="cls-1" x="175.97" width="170.86" height="10"/><polygon class="cls-1" points="698.83 102.92 688.83 102.92 688.83 10 387.78 10 387.78 0 698.83 0 698.83 102.92"/><polygon class="cls-1" points="698.83 514.04 428.83 514.04 428.83 504.05 688.83 504.05 688.83 184.81 698.83 184.81 698.83 514.04"/><rect class="cls-1" x="371.46" y="255.02" width="73.62" height="4"/><polygon class="cls-1" points="526.33 351.75 522.33 351.75 522.33 259.02 488.08 259.02 488.08 255.02 526.33 255.02 526.33 351.75"/><polygon class="cls-1" points="526.33 511.05 428.83 511.05 428.83 507.05 522.33 507.05 522.33 394.7 526.33 394.7 526.33 511.05"/><polygon class="cls-1" points="385.83 511.05 288.33 511.05 288.33 394.7 292.33 394.7 292.33 507.05 385.83 507.05 385.83 511.05"/><polygon class="cls-1" points="292.33 351.75 288.33 351.75 288.33 255.02 328.46 255.02 328.46 259.02 292.33 259.02 292.33 351.75"/><rect class="cls-1" x="524.33" y="255.02" width="169.5" height="4"/><rect class="cls-1" x="405.33" y="5" width="4" height="252.02"/><rect class="cls-1" x="107.83" y="153.35" width="4" height="103.67"/><rect class="cls-1" x="107.83" y="5" width="4" height="105.35"/><path class="cls-1" d="M151.28,153.85h-43.5v-1h42.49a42.55,42.55,0,0,0-42.49-42v-1a43.56,43.56,0,0,1,43.5,43.5Z"/><path class="cls-1" d="M526.34,395.25a43.54,43.54,0,0,1-43.5-43.5v-.5h43.5v1h-42.5a42.55,42.55,0,0,0,42.5,42Z"/><path class="cls-1" d="M288.3,395.25v-1a42.55,42.55,0,0,0,42.5-42H288.3v-1h43.5v.5A43.54,43.54,0,0,1,288.3,395.25Z"/><path class="cls-1" d="M429.33,549.08h-.5a44.55,44.55,0,0,1-44.5-44.5h1a43.54,43.54,0,0,0,43,43.49V504.58h1Z"/><path class="cls-1" d="M445.08,298.5h-.5V255h1v42.5a42.55,42.55,0,0,0,42-42.5h1A43.55,43.55,0,0,1,445.08,298.5Z"/><path class="cls-1" d="M372,298.52h-.5A43.54,43.54,0,0,1,328,255h1a42.55,42.55,0,0,0,42,42.5V255h1Z"/><path class="cls-1" d="M322.58,144.37h-128V9.54h128Zm-127-1h126V10.54h-126Z"/><path class="cls-1" d="M251.5,44.28H211.27a3.21,3.21,0,0,1-3.2-3.21V18.56a3.2,3.2,0,0,1,3.2-3.2H251.5a3.2,3.2,0,0,1,3.2,3.2V41.07A3.21,3.21,0,0,1,251.5,44.28ZM211.27,16.36a2.21,2.21,0,0,0-2.2,2.2V41.07a2.21,2.21,0,0,0,2.2,2.21H251.5a2.21,2.21,0,0,0,2.2-2.21V18.56a2.21,2.21,0,0,0-2.2-2.2Z"/><path class="cls-1" d="M307,44.28H266.75a3.21,3.21,0,0,1-3.2-3.21V18.56a3.2,3.2,0,0,1,3.2-3.2H307a3.2,3.2,0,0,1,3.2,3.2V41.07A3.21,3.21,0,0,1,307,44.28ZM266.75,16.36a2.21,2.21,0,0,0-2.2,2.2V41.07a2.21,2.21,0,0,0,2.2,2.21H307a2.21,2.21,0,0,0,2.2-2.21V18.56a2.21,2.21,0,0,0-2.2-2.2Z"/><path class="cls-1" d="M322.58,67.85h-128V55.06h128Zm-127-1h126V56.06h-126Z"/><path class="cls-1" d="M322.58,144.37h-128V66.85h128Zm-127-1h126V67.85h-126Z"/><path class="cls-1" d="M543.6,84.21H408.77V9.7H543.6Zm-133.83-1H542.6V10.7H409.77Z"/><path class="cls-1" d="M440.31,70.27H417.79a3.21,3.21,0,0,1-3.2-3.2V26.84a3.21,3.21,0,0,1,3.2-3.2h22.52a3.21,3.21,0,0,1,3.2,3.2V67.07A3.21,3.21,0,0,1,440.31,70.27ZM417.79,24.64a2.21,2.21,0,0,0-2.2,2.2V67.07a2.21,2.21,0,0,0,2.2,2.2h22.52a2.21,2.21,0,0,0,2.2-2.2V26.84a2.21,2.21,0,0,0-2.2-2.2Z"/><path class="cls-1" d="M467.08,84.21H454.29V9.7h12.79Zm-11.79-1h10.79V10.7H455.29Z"/><path class="cls-1" d="M543.6,84.21H466.08V9.7H543.6Zm-76.52-1H542.6V10.7H467.08Z"/><path class="cls-1" d="M675,322.79H648.93c-12.64,0-22.93-8.94-22.93-19.94v-3.18c0-11,10.29-19.94,22.93-19.94H675a.5.5,0,0,1,.5.5v42.06A.5.5,0,0,1,675,322.79Zm-26.11-42.06c-12.09,0-21.93,8.5-21.93,18.94v3.18c0,10.44,9.84,18.94,21.93,18.94h25.61V280.73Z"/><path class="cls-1" d="M671.29,319.54H649.07c-10.65,0-19.32-7.54-19.32-16.81v-2.94c0-9.27,8.67-16.81,19.32-16.81h22.22a.5.5,0,0,1,.5.5V319A.5.5,0,0,1,671.29,319.54ZM649.07,284c-10.1,0-18.32,7.09-18.32,15.81v2.94c0,8.72,8.22,15.81,18.32,15.81h21.72V284Z"/><path class="cls-1" d="M680.62,328.2a.52.52,0,0,1-.35-.14l-5.58-5.41a.55.55,0,0,1-.15-.36V280.23a.51.51,0,0,1,.15-.35l5.58-5.42a.5.5,0,0,1,.85.36V327.7a.49.49,0,0,1-.3.46A.48.48,0,0,1,680.62,328.2Zm-5.08-6.12,4.58,4.44V276l-4.58,4.45Z"/><path class="cls-1" d="M688.83,328.2h-8.21a.5.5,0,0,1-.5-.5V274.82a.5.5,0,0,1,.5-.5h8.21a.5.5,0,0,1,.5.5V327.7A.5.5,0,0,1,688.83,328.2Zm-7.71-1h7.21V275.32h-7.21Z"/><path class="cls-1" d="M58.58,57.25H5.83V4.5H58.58Zm-51.75-1H57.58V5.5H6.83Z"/><rect class="cls-1" x="31.96" y="-5.72" width="0.5" height="73.19" transform="translate(-12.4 31.82) rotate(-45)"/><rect class="cls-1" x="-4.38" y="30.62" width="73.19" height="0.5" transform="translate(-12.4 31.82) rotate(-45)"/><path class="cls-1" d="M58.58,107.32H5.83V56.25H58.58Zm-51.75-1H57.58V57.25H6.83Z"/><rect class="cls-1" x="31.96" y="45.78" width="0.5" height="72.01" transform="translate(-48.96 48.06) rotate(-45.95)"/><rect class="cls-1" x="-3.79" y="81.53" width="72.01" height="0.5" transform="translate(-47.81 45.4) rotate(-44.05)"/><path class="cls-1" d="M58.58,157.39H5.83V106.32H58.58Zm-51.75-1H57.58V107.32H6.83Z"/><rect class="cls-1" x="31.96" y="95.85" width="0.5" height="72.01" transform="translate(-84.95 63.32) rotate(-45.95)"/><rect class="cls-1" x="-3.79" y="131.6" width="72.01" height="0.5" transform="translate(-82.61 59.47) rotate(-44.04)"/><path class="cls-1" d="M58.58,207.45H5.83V156.39H58.58Zm-51.75-1H57.58V157.39H6.83Z"/><rect class="cls-1" x="31.96" y="145.92" width="0.5" height="72.01" transform="translate(-120.93 78.57) rotate(-45.95)"/><rect class="cls-1" x="-3.79" y="181.67" width="72.01" height="0.5" transform="translate(-117.42 73.55) rotate(-44.04)"/><path class="cls-1" d="M58.58,257.52H5.83V206.45H58.58Zm-51.75-1H57.58V207.45H6.83Z"/><rect class="cls-1" x="31.96" y="195.99" width="0.5" height="72.01" transform="translate(-156.91 93.83) rotate(-45.95)"/><rect class="cls-1" x="-3.79" y="231.74" width="72.01" height="0.5" transform="translate(-152.24 87.65) rotate(-44.05)"/><path class="cls-1" d="M110.33,257.52H57.58V206.45h52.75Zm-51.75-1h50.75V207.45H58.58Z"/><rect class="cls-1" x="83.71" y="195.99" width="0.5" height="72.01" transform="translate(-141.15 131.02) rotate(-45.95)"/><rect class="cls-1" x="47.96" y="231.74" width="72.01" height="0.5" transform="translate(-137.7 123.65) rotate(-44.06)"/><path class="cls-1" d="M110.33,57.25H57.58V4.5h52.75Zm-51.75-1h50.75V5.5H58.58Z"/><rect class="cls-1" x="83.71" y="-5.72" width="0.5" height="73.19" transform="translate(2.76 68.41) rotate(-45)"/><rect class="cls-1" x="47.37" y="30.62" width="73.19" height="0.5" transform="translate(2.75 68.4) rotate(-44.99)"/><path class="cls-1" d="M186,44.28H155v-31h31Zm-30-1h29v-29H156Z"/><path class="cls-1" d="M362.33,44.28h-31v-31h31Zm-30-1h29v-29h-29Z"/><rect class="cls-1" x="6.33" y="255.02" width="284" height="4"/><path class="cls-1" d="M200.67,510.55H4.81l0-159.3H33.5l25.08,25.09V437L78.37,456.8h122.3Zm-194.86-1H199.67V457.8H78L57.58,437.42V376.75l-24.5-24.5H5.83V457.8h0Z"/><path class="cls-1" d="M282,510.55H209.67V456.8H282Zm-71.33-1H281V457.8H210.67Z"/><path class="cls-1" d="M155.16,394.75H130.55V384a6.14,6.14,0,0,1,6.14-6.13H149a6.14,6.14,0,0,1,6.13,6.13Zm-23.61-1h22.61V384a5.13,5.13,0,0,0-5.13-5.13H136.69a5.14,5.14,0,0,0-5.14,5.13Z"/><rect class="cls-1" x="131.05" y="390.75" width="23.61" height="1"/><path class="cls-1" d="M202,394.75H177.42V384a6.15,6.15,0,0,1,6.14-6.13H195.9A6.15,6.15,0,0,1,202,384Zm-23.62-1H201V384a5.14,5.14,0,0,0-5.14-5.13H183.56a5.14,5.14,0,0,0-5.14,5.13Z"/><rect class="cls-1" x="177.92" y="390.75" width="23.61" height="1"/><path class="cls-1" d="M89.17,353.69H78.44V329.08H89.17a6.15,6.15,0,0,1,6.14,6.14v12.34A6.15,6.15,0,0,1,89.17,353.69Zm-9.73-1h9.73a5.14,5.14,0,0,0,5.14-5.13V335.22a5.14,5.14,0,0,0-5.14-5.14H79.44Z"/><rect class="cls-1" x="81.44" y="329.58" width="1" height="23.61"/><path class="cls-1" d="M620.8,160.73H604.67V128.06H620.8a6.15,6.15,0,0,1,6.14,6.14v20.39A6.15,6.15,0,0,1,620.8,160.73Zm-15.13-1H620.8a5.14,5.14,0,0,0,5.14-5.14V134.2a5.14,5.14,0,0,0-5.14-5.14H605.67Z"/><rect class="cls-1" x="608.68" y="128.56" width="1" height="31.66"/><path class="cls-1" d="M254.14,353.69H243.41a6.14,6.14,0,0,1-6.13-6.13V335.22a6.14,6.14,0,0,1,6.13-6.14h10.73Zm-10.73-23.61a5.14,5.14,0,0,0-5.13,5.14v12.34a5.13,5.13,0,0,0,5.13,5.13h9.73V330.08Z"/><rect class="cls-1" x="250.14" y="329.58" width="1" height="23.61"/><path class="cls-1" d="M224.05,300.59H213.92a1.88,1.88,0,0,1-1.88-1.88v-27.9h-27.9a1.88,1.88,0,0,1-1.29-.51,1.42,1.42,0,0,1-1.06.51H150.9a1.45,1.45,0,0,1-1.12-.56,1.9,1.9,0,0,1-1.34.56H120.55v27.9a1.89,1.89,0,0,1-1.89,1.88H108.53a1.89,1.89,0,0,1-1.88-1.88V258.79a1.88,1.88,0,0,1,1.88-1.88h39.91a1.89,1.89,0,0,1,1.34.56,1.45,1.45,0,0,1,1.12-.56h30.89a1.42,1.42,0,0,1,1.06.51,1.88,1.88,0,0,1,1.29-.51h39.91a1.91,1.91,0,0,1,1.06.32,2,2,0,0,1,.68.83,2,2,0,0,1,.14.73v39.92A1.88,1.88,0,0,1,224.05,300.59Zm-41.3-33.37.58,2.06a.89.89,0,0,0,.81.53H213v28.9a.89.89,0,0,0,.88.88h10.13a.88.88,0,0,0,.88-.88V258.79a1,1,0,0,0-.06-.34.94.94,0,0,0-.32-.39.89.89,0,0,0-.5-.15H184.14a.88.88,0,0,0-.83.59l-.59,1.67-.4-1.64c-.07-.36-.3-.62-.53-.62H150.9c-.22,0-.44.23-.53.55a1.24,1.24,0,0,0,0,.33h-1a.87.87,0,0,0-.24-.6l-.07-.06a.87.87,0,0,0-.58-.22H108.53a.89.89,0,0,0-.88.88v39.92a.89.89,0,0,0,.88.88h10.13a.89.89,0,0,0,.89-.88v-28.9h28.89a.87.87,0,0,0,.67-.31.85.85,0,0,0,.22-.58h1a1.18,1.18,0,0,0,.06.39c.1.3.3.5.51.5h30.89c.23,0,.46-.26.53-.62Z"/><path class="cls-1" d="M213.92,304.89H184.14a1.9,1.9,0,0,1-1.57-.84,1.85,1.85,0,0,1-.31-1.05l0-33.67a.74.74,0,0,0,0-.14l.43-2,.58,2a.89.89,0,0,0,.81.53H213v28.9a.89.89,0,0,0,.88.88h1.88V303A1.89,1.89,0,0,1,213.92,304.89Zm-30.66-34.3V303a.91.91,0,0,0,.14.49.89.89,0,0,0,.74.4h29.78a.88.88,0,0,0,.88-.89v-2.41h-.88a1.88,1.88,0,0,1-1.88-1.88v-27.9h-27.9A1.85,1.85,0,0,1,183.26,270.59Z"/><path class="cls-1" d="M181.36,304.89H151.22a1.87,1.87,0,0,1-1.89-1.89V268.92h1a1.18,1.18,0,0,0,.06.39c.1.3.3.5.51.5h30.89c.2,0,.39-.19.49-.48l1-2.78V303A1.9,1.9,0,0,1,181.36,304.89Zm-31-34.21V303a.88.88,0,0,0,.89.89h30.14a.9.9,0,0,0,.9-.89V270.72a1.27,1.27,0,0,1-.47.09H150.9A1.36,1.36,0,0,1,150.33,270.68Z"/><path class="cls-1" d="M148.44,304.89H118.67a1.89,1.89,0,0,1-1.89-1.89v-3.41h1.88a.89.89,0,0,0,.89-.88v-28.9h28.89a.87.87,0,0,0,.67-.31h0a.85.85,0,0,0,.22-.58h1V303a1.86,1.86,0,0,1-.32,1.05A1.88,1.88,0,0,1,148.44,304.89Zm-30.66-4.3V303a.89.89,0,0,0,.89.89h29.77a.88.88,0,0,0,.74-.4.81.81,0,0,0,.15-.49V270.59a1.92,1.92,0,0,1-.89.22H120.55v27.9a1.89,1.89,0,0,1-1.89,1.88Z"/><rect class="cls-1" x="149.33" y="258.79" width="1" height="10.13"/><rect class="cls-1" x="182.26" y="258.42" width="1" height="11.07"/><path class="cls-1" d="M199.8,373.75h-67a32.37,32.37,0,0,1,0-64.73h67a32.37,32.37,0,1,1,0,64.73Zm-67-63.73a31.37,31.37,0,0,0,0,62.73h67a31.37,31.37,0,1,0,0-62.73Z"/><path class="cls-1" d="M10,346.25H0V263.36H10Zm-9-1H9V264.36H1Z"/><path class="cls-1" d="M698.83,185.31h-10V102.42h10Zm-9-1h8V103.42h-8Z"/><path class="cls-1" d="M388.28,10H346.33V0h41.95ZM347.33,9h39.95V1H347.33Z"/><path class="cls-1" d="M176.47,10H134.53V0h41.94ZM135.53,9h39.94V1H135.53Z"/><path class="cls-1" d="M689.33,205.58H633V83.21h56.33Zm-55.33-1h54.33V84.21H634Z"/><path class="cls-1" d="M50.25,489.69a16.68,16.68,0,0,1-11.9-4.91l-8.55-8.55a16.83,16.83,0,0,1,23.81-23.8L62.15,461a16.82,16.82,0,0,1-11.9,28.72Zm-8.54-41.18a15.83,15.83,0,0,0-11.2,27l8.54,8.54a15.84,15.84,0,0,0,22.4-22.39l-8.55-8.54A15.75,15.75,0,0,0,41.71,448.51Z"/><path class="cls-1" d="M35.9,482.33l-3.65-3.65,9.42-9.42,3.66,3.65Zm-2.24-3.65,2.24,2.24,8-8-2.24-2.24Z"/><path class="cls-1" d="M48.92,468.24a2.58,2.58,0,1,1,1.83-.75A2.61,2.61,0,0,1,48.92,468.24Zm0-4.16a1.57,1.57,0,0,0-1.58,1.58,1.56,1.56,0,0,0,.46,1.12,1.62,1.62,0,0,0,2.24,0,1.56,1.56,0,0,0,.46-1.12,1.57,1.57,0,0,0-1.58-1.58Z"/><path class="cls-1" d="M685.83,427.9H671.1v-6.48h14.73Zm-13.73-1h12.73v-4.48H672.1Z"/><path class="cls-1" d="M671.76,414.61a4.59,4.59,0,1,1,4.58-4.59A4.6,4.6,0,0,1,671.76,414.61Zm0-8.17a3.59,3.59,0,1,0,3.58,3.58A3.59,3.59,0,0,0,671.76,406.44Z"/><path class="cls-1" d="M46.45,427.9H21a3.64,3.64,0,0,1-3.64-3.63V389.45A3.64,3.64,0,0,1,21,385.82H46.45a3.64,3.64,0,0,1,3.63,3.63v34.82A3.64,3.64,0,0,1,46.45,427.9ZM21,386.82a2.64,2.64,0,0,0-2.64,2.63v34.82A2.64,2.64,0,0,0,21,426.9H46.45a2.63,2.63,0,0,0,2.63-2.63V389.45a2.63,2.63,0,0,0-2.63-2.63Z"/><path class="cls-1" d="M26.46,403.5a6.13,6.13,0,1,1,6.13-6.13A6.13,6.13,0,0,1,26.46,403.5Zm0-11.25a5.13,5.13,0,1,0,5.13,5.12A5.12,5.12,0,0,0,26.46,392.25Z"/><path class="cls-1" d="M41,403.5a6.13,6.13,0,1,1,6.13-6.13A6.13,6.13,0,0,1,41,403.5Zm0-11.25a5.13,5.13,0,1,0,5.13,5.12A5.12,5.12,0,0,0,41,392.25Z"/><path class="cls-1" d="M26.46,420.36a6.13,6.13,0,1,1,6.13-6.13A6.13,6.13,0,0,1,26.46,420.36Zm0-11.25a5.13,5.13,0,1,0,5.13,5.12A5.13,5.13,0,0,0,26.46,409.11Z"/><path class="cls-1" d="M41,420.36a6.13,6.13,0,1,1,6.13-6.13A6.13,6.13,0,0,1,41,420.36Zm0-11.25a5.13,5.13,0,1,0,5.13,5.12A5.13,5.13,0,0,0,41,409.11Z"/><rect class="cls-1" x="25.11" y="460.21" width="1" height="57.34" transform="translate(-338.19 161.29) rotate(-45)"/><path class="cls-1" d="M343.83,509.55h-54v-98.8h54Zm-53-1h52v-96.8h-52Z"/><path class="cls-1" d="M524.83,509.55h-77v-49.9h77Zm-76-1h75v-47.9h-75Z"/><path class="cls-1" d="M313.34,257.91H198.53V223.75H313.34Zm-113.81-1H312.34V224.75H199.53Z"/><path class="cls-1" d="M694.33,509.55H569v-35a90.45,90.45,0,0,1,90.35-90.35h35Zm-124.33-1H693.33V385.21h-34A89.45,89.45,0,0,0,570,474.56Z"/><path class="cls-1" d="M685.83,501H577.5V474.56a81.94,81.94,0,0,1,81.85-81.84h26.48ZM578.5,500H684.83V393.72H659.35a80.93,80.93,0,0,0-80.85,80.84Z"/><path class="cls-1" d="M540,334.31V274.52l.52,0c20.22.86,36.05,13.64,36.05,29.09v1.57c0,15.45-15.83,28.22-36.05,29.08Zm1-58.75v57.7c19.43-1,34.57-13.28,34.57-28.06v-1.57C575.58,288.85,560.44,276.59,541,275.56Z"/><path class="cls-1" d="M542.49,331.67V277.15l.55.05c17.71,1.73,31.06,13.09,31.06,26.43v1.57c0,13.34-13.35,24.69-31.06,26.42Zm1-53.41v52.31c16.92-1.85,29.61-12.69,29.61-25.37v-1.57C573.1,290.94,560.41,280.11,543.49,278.26Z"/><path class="cls-1" d="M557.22,307.65H542.49v-6.48h14.73Zm-13.73-1h12.73v-4.48H543.49Z"/><path class="cls-1" d="M564.18,307.65a3.24,3.24,0,1,1,3.23-3.24A3.24,3.24,0,0,1,564.18,307.65Zm0-5.48a2.24,2.24,0,1,0,2.23,2.24A2.24,2.24,0,0,0,564.18,302.17Z"/><path class="cls-1" d="M541,340.3H525.84V268.88H541Zm-14.17-1H540V269.88H526.84Z"/></g></g></svg>